<svg width="49" height="49" viewBox="0 0 49 49" fill="none" xmlns="http://www.w3.org/2000/svg">
<g clip-path="url(#clip0_500_811)">
<path d="M24.25 48.5C37.5501 48.5 48.25 37.8001 48.25 24.5C48.25 11.1999 37.5501 0.5 24.25 0.5C10.9499 0.5 0.25 11.1999 0.25 24.5C0.25 37.8001 10.9499 48.5 24.25 48.5Z" fill="#2775CA"/>
<path d="M30.8491 28.3002C30.8491 24.8003 28.7491 23.6003 24.5491 23.1004C21.5491 22.7003 20.9491 21.9004 20.9491 20.5002C20.9491 19.1 21.9492 18.2003 23.9491 18.2003C25.7491 18.2003 26.7492 18.8003 27.2491 20.3003C27.3492 20.6003 27.6492 20.8002 27.9492 20.8002H29.5491C29.9491 20.8002 30.2491 20.5002 30.2491 20.1004V20.0003C29.8491 17.8002 28.0491 16.1003 25.7491 15.9004V13.5004C25.7491 13.1003 25.4491 12.8003 24.9492 12.7002H23.4492C23.0491 12.7002 22.7491 13.0002 22.6491 13.5004V15.8003C19.6491 16.2004 17.7492 18.2003 17.7492 20.7004C17.7492 24.0004 19.7491 25.3002 23.9491 25.8004C26.7492 26.3003 27.6492 26.9003 27.6492 28.5004C27.6492 30.1004 26.2491 31.2004 24.3492 31.2004C21.7491 31.2004 20.8491 30.1002 20.5491 28.6002C20.4492 28.2004 20.1492 28.0002 19.8492 28.0002H18.1491C17.7492 28.0002 17.4492 28.3002 17.4492 28.7003V28.8004C17.8491 31.3002 19.4491 33.1002 22.7491 33.6004V36.0004C22.7491 36.4002 23.0491 36.7002 23.5491 36.8003H25.0491C25.4491 36.8003 25.7491 36.5003 25.8492 36.0004V33.6004C28.8492 33.1002 30.8491 31.0002 30.8491 28.3002Z" fill="white"/>
<path d="M19.15 38.7998C11.35 36 7.34992 27.3 10.2501 19.5998C11.7501 15.3998 15.0501 12.1999 19.15 10.6999C19.5501 10.5 19.75 10.2 19.75 9.69984V8.29992C19.75 7.89984 19.5501 7.59984 19.15 7.5C19.0499 7.5 18.85 7.5 18.7499 7.59984C9.25 10.5998 4.04992 20.7 7.04992 30.1999C8.84992 35.7998 13.15 40.0999 18.7499 41.8999C19.15 42.0998 19.5501 41.8999 19.6499 41.4998C19.75 41.4 19.75 41.2999 19.75 41.1V39.6998C19.75 39.3998 19.45 39 19.15 38.7998ZM29.7501 7.59984C29.35 7.39992 28.9499 7.59984 28.8501 7.99992C28.75 8.1 28.75 8.19984 28.75 8.4V9.79992C28.75 10.2 29.05 10.5998 29.35 10.8C37.15 13.5998 41.1501 22.2998 38.2499 30C36.7499 34.2 33.4499 37.3999 29.35 38.8999C28.9499 39.0998 28.75 39.3998 28.75 39.9V41.2999C28.75 41.7 28.9499 42 29.35 42.0998C29.4501 42.0998 29.65 42.0998 29.7501 42C39.25 39 44.4501 28.8998 41.4501 19.3999C39.6501 13.6999 35.2499 9.39984 29.7501 7.59984Z" fill="white"/>
</g>
<defs>
<clipPath id="clip0_500_811">
<rect width="48" height="48" fill="white" transform="translate(0.25 0.5)"/>
</clipPath>
</defs>
</svg>
