<svg width="50" height="50" viewBox="0 0 49 49" fill="none" xmlns="http://www.w3.org/2000/svg">
<path d="M1.45405 18.8178L1.45408 18.8177C4.59164 6.22702 17.3439 -1.43532 29.9323 1.70334L29.9323 1.70334C42.5237 4.84201 50.1855 17.595 47.0465 30.1849C43.9075 42.7741 31.1552 50.4357 18.563 47.2963C5.97606 44.1577 -1.68643 31.4062 1.45405 18.8178Z" fill="#F7931A" stroke="white"/>
<path d="M34.8326 21.0809C35.3104 17.8875 32.8787 16.1707 29.5536 15.0255L30.6322 10.6995L27.9986 10.0433L26.9485 14.2552C26.2562 14.0827 25.5451 13.92 24.8386 13.7588L25.8962 9.51904L23.2641 8.86279L22.1848 13.1872C21.6117 13.0567 21.0491 12.9278 20.5031 12.792L20.5061 12.7785L16.8742 11.8718L16.1737 14.6842C16.1737 14.6842 18.1276 15.132 18.0863 15.1597C19.153 15.426 19.3457 16.1317 19.3135 16.6912L18.0848 21.6194C18.1583 21.6382 18.2536 21.6652 18.3586 21.7072C18.2709 21.6854 18.1771 21.6614 18.0803 21.6382L16.3582 28.5419C16.2276 28.8659 15.8969 29.3518 15.1513 29.1673C15.1775 29.2056 13.2371 28.6896 13.2371 28.6896L11.9297 31.7038L15.3568 32.5581C15.9944 32.7178 16.6192 32.885 17.2342 33.0425L16.1444 37.418L18.7749 38.0743L19.8543 33.7453C20.5729 33.9403 21.2704 34.1203 21.953 34.2898L20.8774 38.5985L23.5109 39.2547L24.6008 34.8875C29.0915 35.7373 32.4684 35.3945 33.8898 31.3333C35.0351 28.0633 33.8328 26.1771 31.47 24.9471C33.1907 24.5504 34.4868 23.4187 34.8326 21.0809V21.0809ZM28.8155 29.5176C28.0016 32.7876 22.4953 31.0198 20.7101 30.5766L22.1563 24.7799C23.9415 25.2254 29.6661 26.1074 28.8155 29.5176ZM29.6301 21.0337C28.8875 24.0081 24.3045 22.4969 22.8178 22.1264L24.129 16.869C25.6156 17.2395 30.4034 17.9309 29.6301 21.0337Z" fill="white"/>
</svg>
