<svg width="23" height="18" viewBox="0 0 23 18" fill="none" xmlns="http://www.w3.org/2000/svg">
<path d="M19.9687 1.67653C18.4901 0.984649 16.9258 0.493085 15.3172 0.214844C15.1173 0.577292 14.8834 1.06426 14.7224 1.45209C13.0141 1.19126 11.2762 1.19126 9.56797 1.45209C9.38867 1.02949 9.18748 0.616515 8.96522 0.214844C7.35543 0.493432 5.7902 0.986365 4.31128 1.6805C1.36966 6.12664 0.571802 10.4641 0.970733 14.7389C2.92177 16.1967 4.81411 17.0826 6.67315 17.6615C7.13528 17.0261 7.54381 16.3533 7.89453 15.6502C7.22715 15.3961 6.58377 15.0829 5.97204 14.7144C6.13304 14.5946 6.29087 14.4693 6.44315 14.3408C10.1517 16.0753 14.1823 16.0753 17.8464 14.3408C18.0002 14.4693 18.1581 14.5946 18.3183 14.7136C17.7076 15.0816 17.0628 15.3964 16.391 15.6518C16.744 16.3577 17.1516 17.0318 17.6124 17.6639C19.4738 17.0842 21.367 16.1983 23.3188 14.7389C23.7867 9.78284 22.5194 5.4866 19.9687 1.67653ZM8.40053 12.1098C7.28701 12.1098 6.37415 11.0708 6.37415 9.80505C6.37415 8.53926 7.26797 7.49791 8.40053 7.49791C9.53308 7.49791 10.4467 8.53688 10.4269 9.80505C10.4285 11.0708 9.53308 12.1098 8.40053 12.1098ZM15.889 12.1098C14.7755 12.1098 13.8626 11.0708 13.8626 9.80505C13.8626 8.53926 14.7565 7.49791 15.889 7.49791C17.0216 7.49791 17.9352 8.53688 17.9154 9.80505C17.9154 11.0708 17.0216 12.1098 15.889 12.1098Z" fill="white" fill-opacity="0.5"/>
</svg>
