<svg width="23" height="20" viewBox="0 0 23 20" fill="none" xmlns="http://www.w3.org/2000/svg">
<path d="M23.508 2.53456C22.9971 2.76129 22.4665 2.94053 21.9228 3.07C22.5255 2.49759 22.9742 1.7825 23.2274 0.990803C23.2432 0.940758 23.2435 0.88709 23.2282 0.836887C23.2128 0.786683 23.1827 0.742306 23.1416 0.709614C23.1005 0.676923 23.0505 0.657456 22.9982 0.653783C22.9458 0.65011 22.8936 0.662405 22.8483 0.689043C22.0926 1.13769 21.2761 1.47512 20.4241 1.69092C20.3237 1.7151 20.2189 1.71468 20.1186 1.68969C20.0183 1.66471 19.9256 1.6159 19.8482 1.5474C18.9417 0.748628 17.7748 0.308287 16.5666 0.309083C16.0431 0.309083 15.515 0.390963 14.9961 0.551963C14.2032 0.79964 13.488 1.2487 12.9204 1.85531C12.3528 2.46192 11.9522 3.20535 11.7577 4.013C11.613 4.61033 11.5735 5.2283 11.6409 5.8392C11.6434 5.86601 11.64 5.89304 11.6309 5.9184C11.6219 5.94375 11.6074 5.9668 11.5884 5.98593C11.5695 6.00505 11.5465 6.01979 11.5213 6.02909C11.496 6.03839 11.469 6.04204 11.4422 6.03976C7.92133 5.71224 4.74733 4.01668 2.50529 1.26404C2.47881 1.23158 2.44485 1.20601 2.40633 1.18953C2.36781 1.17304 2.32588 1.16613 2.2841 1.16939C2.24233 1.17264 2.20197 1.18596 2.16647 1.20822C2.13097 1.23047 2.10139 1.26099 2.08025 1.29716C1.63994 2.05426 1.4082 2.91454 1.40865 3.79036C1.40865 5.13356 1.94869 6.40132 2.88709 7.325C2.49164 7.23146 2.11089 7.08411 1.75549 6.88708C1.71626 6.86548 1.67211 6.8544 1.62733 6.85492C1.58255 6.85544 1.53867 6.86754 1.49995 6.89005C1.46124 6.91256 1.42901 6.9447 1.4064 6.98336C1.38379 7.02202 1.37157 7.06587 1.37093 7.11064C1.35929 8.07145 1.62673 9.01499 2.14082 9.82678C2.65491 10.6386 3.39353 11.2837 4.26709 11.684C3.9515 11.6909 3.63605 11.6647 3.32593 11.6058C3.28177 11.5974 3.23619 11.6007 3.19367 11.6152C3.15115 11.6298 3.11314 11.6552 3.08337 11.6888C3.05359 11.7225 3.03308 11.7633 3.02383 11.8073C3.01458 11.8513 3.01692 11.8969 3.03061 11.9397C3.31083 12.8095 3.82542 13.5852 4.51782 14.1815C5.21022 14.7778 6.05363 15.1717 6.95533 15.3198C5.4407 16.3382 3.65609 16.8803 1.83093 16.8764H1.25777C1.17286 16.8756 1.09011 16.9032 1.02274 16.9549C0.955375 17.0066 0.907264 17.0794 0.88609 17.1616C0.865953 17.2446 0.873377 17.3318 0.907239 17.4102C0.941102 17.4885 0.99956 17.5537 1.07377 17.5959C3.15074 18.8037 5.51044 19.4401 7.91305 19.4405C10.0153 19.4405 11.9813 19.0228 13.7569 18.2003C15.3902 17.4422 16.8468 16.3507 18.033 14.996C19.1664 13.7066 20.0538 12.2205 20.6514 10.6112C21.2337 9.05552 21.5419 7.39584 21.5419 5.8116V5.73616C21.5419 5.48132 21.6569 5.24212 21.8575 5.07928C22.6193 4.46075 23.2839 3.73134 23.8291 2.91544C23.9735 2.69924 23.7463 2.42968 23.508 2.53456Z" fill="white" fill-opacity="0.5"/>
</svg>
