<svg width="60" height="60" viewBox="0 0 60 60" fill="none" xmlns="http://www.w3.org/2000/svg">
<g clip-path="url(#clip0_1612_674)">
<path d="M29.2296 54.9183C43.2678 54.9183 54.648 43.5381 54.648 29.4999C54.648 15.4617 43.2678 4.08154 29.2296 4.08154C15.1915 4.08154 3.81128 15.4617 3.81128 29.4999C3.81128 43.5381 15.1915 54.9183 29.2296 54.9183Z" fill="white" stroke="white" stroke-width="1.08163"/>
<path d="M29.2268 12.812L28.9973 13.5726V35.6417L29.2268 35.865L39.7295 29.8097L29.2268 12.812Z" fill="#343434"/>
<path d="M29.2245 12.812L18.7217 29.8097L29.2245 35.865V25.1533V12.812Z" fill="#8C8C8C"/>
<path d="M29.228 37.8044L29.0986 37.9583V45.8196L29.228 46.188L39.7371 31.7522L29.228 37.8044Z" fill="#3C3C3B"/>
<path d="M29.2245 46.188V37.8044L18.7217 31.7522L29.2245 46.188Z" fill="#8C8C8C"/>
<path d="M29.2231 35.8648L39.7259 29.8095L29.2231 25.1531V35.8648Z" fill="#141414"/>
<path d="M18.7217 29.8095L29.2245 35.8648V25.1531L18.7217 29.8095Z" fill="#393939"/>
</g>
<rect x="1" y="1" width="58" height="58" rx="29" stroke="#848E9C" stroke-width="2"/>
<defs>
<clipPath id="clip0_1612_674">
<rect width="53" height="53" fill="white" transform="translate(3 3)"/>
</clipPath>
</defs>
</svg>
