<svg width="24" height="27" viewBox="0 0 24 27" fill="none" xmlns="http://www.w3.org/2000/svg">
<g clip-path="url(#clip0_1530_1141)">
<g clip-path="url(#clip1_1530_1141)">
<path d="M7.11884 3.54891C6.79652 3.49922 6.78293 3.4934 6.9346 3.47022C7.22528 3.4258 7.91165 3.48635 8.38463 3.59812C9.48882 3.85899 10.4936 4.52726 11.5661 5.71412L11.851 6.02943L12.2586 5.9643C13.9758 5.69002 15.7227 5.90801 17.1838 6.57887C17.5858 6.76343 18.2196 7.13083 18.2988 7.22524C18.324 7.25532 18.3703 7.449 18.4016 7.65567C18.5101 8.37069 18.4558 8.91875 18.2359 9.32811C18.1161 9.55086 18.1094 9.62146 18.19 9.81209C18.2542 9.96423 18.4333 10.0768 18.6107 10.0766C18.9738 10.0761 19.3646 9.4927 19.5457 8.68097L19.6177 8.35855L19.7602 8.51896C20.5417 9.3991 21.1557 10.5994 21.2611 11.4538L21.2885 11.6765L21.1572 11.474C20.9312 11.1256 20.7039 10.8883 20.413 10.697C19.8885 10.3521 19.3341 10.2348 17.8657 10.1579C16.5394 10.0884 15.7887 9.97581 15.0444 9.73458C13.7781 9.32422 13.1397 8.77769 11.6354 6.81612C10.9673 5.94486 10.5543 5.46282 10.1435 5.07461C9.21011 4.19252 8.29291 3.72991 7.11884 3.54891Z" fill="white"/>
<path d="M18.5979 5.49436C18.6313 4.91054 18.7109 4.52546 18.8711 4.17378C18.9345 4.03458 18.9938 3.92065 19.0031 3.92065C19.0122 3.92065 18.9846 4.02339 18.9417 4.14896C18.8253 4.49025 18.8062 4.95708 18.8864 5.50021C18.9882 6.18934 19.0461 6.28877 19.779 7.03318C20.1227 7.38235 20.5225 7.82271 20.6674 8.01178L20.931 8.35556L20.6674 8.10988C20.3452 7.80943 19.604 7.2235 19.4403 7.13974C19.3305 7.08357 19.3142 7.08454 19.2465 7.15153C19.1841 7.21325 19.1709 7.30599 19.1623 7.74447C19.1488 8.42786 19.055 8.86649 18.8289 9.30507C18.7066 9.54228 18.6872 9.49165 18.7979 9.22391C18.8805 9.02399 18.8889 8.93611 18.8884 8.27456C18.8871 6.94533 18.7283 6.62577 17.7973 6.07836C17.5614 5.93968 17.1727 5.73969 16.9336 5.6339C16.6945 5.52811 16.5045 5.43597 16.5114 5.42908C16.5378 5.40301 17.4457 5.66641 17.8113 5.80616C18.355 6.014 18.4447 6.04094 18.5107 6.01586C18.555 5.99905 18.5765 5.87095 18.5979 5.49436Z" fill="white"/>
<path d="M7.7449 7.7682C7.09056 6.87284 6.6857 5.50004 6.77335 4.47382L6.80045 4.15625L6.9494 4.18326C7.2291 4.23396 7.71137 4.41237 7.93719 4.5487C8.55691 4.92277 8.8252 5.41527 9.09814 6.67993C9.17809 7.05036 9.28299 7.46955 9.33126 7.61147C9.40895 7.83989 9.70258 8.37346 9.9413 8.71998C10.1133 8.96956 9.99903 9.08782 9.61893 9.05371C9.03845 9.00164 8.25216 8.46228 7.7449 7.7682Z" fill="white"/>
<path d="M17.8041 14.4319C14.7462 13.2082 13.6692 12.146 13.6692 10.3538C13.6692 10.0901 13.6783 9.87427 13.6894 9.87427C13.7006 9.87427 13.8189 9.9613 13.9524 10.0677C14.5725 10.562 15.2668 10.7732 17.1891 11.0519C18.3203 11.2159 18.9569 11.3484 19.5441 11.542C21.4105 12.1572 22.5652 13.4057 22.8406 15.1062C22.9207 15.6003 22.8737 16.527 22.744 17.0153C22.6417 17.4011 22.329 18.0963 22.2461 18.1231C22.2231 18.1305 22.2006 18.0429 22.1946 17.9237C22.1633 17.2852 21.8386 16.6635 21.2934 16.1978C20.6735 15.6684 19.8406 15.2469 17.8041 14.4319Z" fill="white"/>
<path d="M15.6574 14.9403C15.6191 14.7137 15.5526 14.4243 15.5097 14.2972L15.4317 14.0662L15.5766 14.2278C15.7772 14.4516 15.9357 14.7379 16.07 15.1192C16.1725 15.4102 16.184 15.4968 16.1833 15.9697C16.1825 16.434 16.1697 16.5314 16.075 16.7933C15.9257 17.2064 15.7405 17.4993 15.4296 17.8137C14.871 18.3788 14.1529 18.6916 13.1165 18.8213C12.9364 18.8438 12.4113 18.8819 11.9497 18.9057C10.7865 18.9658 10.0208 19.0901 9.33287 19.3302C9.23397 19.3647 9.14565 19.3858 9.13668 19.3769C9.10885 19.3493 9.57725 19.0718 9.96413 18.8865C10.5096 18.6253 11.0527 18.4828 12.2694 18.2814C12.8704 18.1819 13.4911 18.0612 13.6487 18.0132C15.1372 17.5596 15.9023 16.3891 15.6574 14.9403Z" fill="white"/>
<path d="M17.0591 17.4146C16.6528 16.5465 16.5595 15.7084 16.7821 14.9268C16.8059 14.8433 16.8442 14.7749 16.8672 14.7749C16.8902 14.7749 16.9861 14.8264 17.0802 14.8893C17.2675 15.0146 17.643 15.2256 18.6433 15.7677C19.8916 16.4442 20.6035 16.968 21.0875 17.5664C21.5114 18.0905 21.7736 18.6875 21.8999 19.4154C21.9714 19.8276 21.9294 20.8197 21.823 21.2348C21.4874 22.544 20.7073 23.5722 19.5948 24.1723C19.4318 24.2602 19.2854 24.3323 19.2696 24.3327C19.2537 24.333 19.3132 24.1829 19.4016 23.9991C19.7758 23.2215 19.8184 22.4651 19.5355 21.6232C19.3622 21.1076 19.0089 20.4786 18.2957 19.4154C17.4663 18.1794 17.263 17.8505 17.0591 17.4146Z" fill="white"/>
<path d="M5.5732 22.0985C6.70797 21.1462 8.11991 20.4697 9.40604 20.2619C9.96034 20.1724 10.8837 20.2079 11.397 20.3385C12.2197 20.5478 12.9557 21.0166 13.3384 21.575C13.7125 22.1207 13.873 22.5964 14.0401 23.6546C14.106 24.0721 14.1777 24.4912 14.1994 24.5862C14.3248 25.1346 14.569 25.5729 14.8716 25.7932C15.3522 26.1428 16.1798 26.1644 16.9939 25.8489C17.132 25.7952 17.2519 25.7582 17.2603 25.7666C17.29 25.7957 16.88 26.0684 16.5908 26.2121C16.2017 26.4052 15.8922 26.48 15.4811 26.48C14.7355 26.48 14.1165 26.1031 13.5999 25.3343C13.4983 25.183 13.2698 24.73 13.0922 24.3274C12.5468 23.091 12.2776 22.7145 11.6443 22.3023C11.0933 21.9437 10.3826 21.8794 9.84797 22.1399C9.14567 22.4822 8.94973 23.3742 9.45272 23.9395C9.65264 24.1642 10.0254 24.3579 10.3303 24.3956C10.9006 24.4662 11.3907 24.0349 11.3907 23.4626C11.3907 23.091 11.247 22.879 10.8852 22.7167C10.3911 22.4951 9.86008 22.7542 9.86262 23.2155C9.86372 23.4122 9.9499 23.5357 10.1483 23.625C10.2756 23.6822 10.2785 23.6867 10.1747 23.6652C9.72142 23.5718 9.61522 23.0287 9.9797 22.668C10.4173 22.2352 11.3222 22.4262 11.633 23.0172C11.7635 23.2654 11.7786 23.7597 11.6648 24.0581C11.4101 24.7262 10.6674 25.0774 9.91392 24.8863C9.40094 24.756 9.19205 24.6151 8.57357 23.982C7.49886 22.8816 7.08164 22.6684 5.53225 22.4281L5.23535 22.382L5.5732 22.0985Z" fill="white"/>
<path fill-rule="evenodd" clip-rule="evenodd" d="M0.530522 2.40497C4.11958 6.7345 6.59155 8.52078 6.86625 8.89817C7.09306 9.20979 7.00771 9.48994 6.61914 9.7095C6.40306 9.83158 5.95881 9.95526 5.73638 9.95526C5.48482 9.95526 5.39843 9.85881 5.39843 9.85881C5.25257 9.7213 5.17042 9.74534 4.42133 8.4238C3.38138 6.81994 2.51106 5.48946 2.48732 5.46718C2.43242 5.41568 2.43337 5.41741 4.3153 8.76416C4.61937 9.46171 4.37577 9.71777 4.37577 9.81711C4.37577 10.0192 4.32031 10.1254 4.06946 10.4035C3.6513 10.8672 3.46437 11.3882 3.32943 12.4664C3.17817 13.675 2.75279 14.5288 1.57396 15.99C0.883912 16.8453 0.771001 17.0021 0.596883 17.3468C0.377566 17.781 0.317262 18.0242 0.292821 18.5723C0.266987 19.152 0.3173 19.5265 0.495472 20.0806C0.651455 20.5659 0.814273 20.8862 1.23051 21.5269C1.58972 22.0798 1.79655 22.4909 1.79655 22.6516C1.79655 22.7795 1.82112 22.7797 2.37775 22.6547C3.70982 22.3558 4.79145 21.8299 5.39977 21.1855C5.77626 20.7866 5.86466 20.5664 5.86752 20.02C5.8694 19.6624 5.85675 19.5875 5.75952 19.3818C5.60125 19.0471 5.31311 18.7687 4.67804 18.3373C3.84594 17.7719 3.49053 17.3168 3.39237 16.6908C3.31182 16.1772 3.40525 15.8148 3.86558 14.8559C4.34204 13.8634 4.46012 13.4404 4.53999 12.4399C4.59158 11.7936 4.66302 11.5387 4.84986 11.3341C5.04475 11.1207 5.22017 11.0484 5.70244 10.9829C6.48871 10.8762 6.98937 10.674 7.4009 10.2971C7.75789 9.97012 7.90728 9.65507 7.9302 9.18079L7.94761 8.82131L7.7481 8.59013C7.02563 7.75287 0.046689 1.74683 0.00222811 1.74683C-0.00727 1.74683 0.230472 2.04301 0.530522 2.40497ZM2.20211 19.2283C2.36546 18.9406 2.27866 18.5711 2.00543 18.3905C1.74727 18.2199 1.34621 18.3003 1.34621 18.5226C1.34621 18.5905 1.38396 18.6398 1.46903 18.6834C1.61228 18.7566 1.62268 18.839 1.50997 19.0073C1.39583 19.1779 1.40504 19.3278 1.53597 19.4296C1.74698 19.5939 2.04568 19.5035 2.20211 19.2283Z" fill="white"/>
<path fill-rule="evenodd" clip-rule="evenodd" d="M8.44376 11.1715C8.07465 11.2842 7.71585 11.673 7.60478 12.0807C7.53702 12.3294 7.57547 12.7657 7.67696 12.9004C7.84092 13.118 7.99948 13.1754 8.42882 13.1724C9.2694 13.1665 10.0001 12.8082 10.0851 12.3603C10.1547 11.9931 9.8338 11.4842 9.39173 11.2608C9.16361 11.1456 8.67848 11.0999 8.44376 11.1715ZM9.4264 11.9352C9.55603 11.7521 9.49931 11.5543 9.27886 11.4205C8.85902 11.1657 8.22412 11.3765 8.22412 11.7707C8.22412 11.9669 8.55521 12.181 8.85869 12.181C9.06069 12.181 9.33712 12.0613 9.4264 11.9352Z" fill="white"/>
</g>
</g>
<defs>
<clipPath id="clip0_1530_1141">
<rect width="24" height="25.71" fill="white" transform="translate(0 0.889893)"/>
</clipPath>
<clipPath id="clip1_1530_1141">
<rect width="23.996" height="25.71" fill="white" transform="translate(0.00195312 0.889893)"/>
</clipPath>
</defs>
</svg>
