<svg width="24" height="24" viewBox="0 0 24 24" fill="none" xmlns="http://www.w3.org/2000/svg">
<path d="M20.6105 1.5H3.39047C2.3356 1.5 1.48047 2.35514 1.48047 3.41V18.72C1.48047 19.7749 2.3356 20.63 3.39047 20.63H20.6105C21.6653 20.63 22.5205 19.7749 22.5205 18.72V3.41C22.5205 2.35514 21.6653 1.5 20.6105 1.5Z" stroke="#F7F7F7" stroke-width="1.91" stroke-miterlimit="10"/>
<path d="M4.34961 23.4989V20.6289" stroke="#F7F7F7" stroke-width="1.91" stroke-miterlimit="10"/>
<path d="M19.6504 23.4989V20.6289" stroke="#F7F7F7" stroke-width="1.91" stroke-miterlimit="10"/>
<path d="M10.0905 15.8491C12.7305 15.8491 14.8705 13.709 14.8705 11.0691C14.8705 8.42914 12.7305 6.28906 10.0905 6.28906C7.45063 6.28906 5.31055 8.42914 5.31055 11.0691C5.31055 13.709 7.45063 15.8491 10.0905 15.8491Z" stroke="#F7F7F7" stroke-width="1.91" stroke-miterlimit="10"/>
<path d="M17.7402 9.15039H19.6502" stroke="#F7F7F7" stroke-width="1.91" stroke-miterlimit="10"/>
<path d="M17.7402 12.9805H19.6502" stroke="#F7F7F7" stroke-width="1.91" stroke-miterlimit="10"/>
<path d="M17.7402 16.8008H19.6502" stroke="#F7F7F7" stroke-width="1.91" stroke-miterlimit="10"/>
<path d="M10.0898 4.37109V11.0711" stroke="#F7F7F7" stroke-width="1.91" stroke-miterlimit="10"/>
<path d="M4.34961 15.8503L10.0896 11.0703" stroke="#F7F7F7" stroke-width="1.91" stroke-miterlimit="10"/>
<path d="M15.8298 15.8503L10.0898 11.0703" stroke="#F7F7F7" stroke-width="1.91" stroke-miterlimit="10"/>
</svg>
